<?xml version="1.0" standalone="no"?>
<!DOCTYPE svg PUBLIC "-//W3C//DTD SVG 20010904//EN"
 "http://www.w3.org/TR/2001/REC-SVG-20010904/DTD/svg10.dtd">
<svg version="1.0" xmlns="http://www.w3.org/2000/svg"
 width="75.000000pt" height="66.000000pt" viewBox="0 0 75.000000 66.000000"
 preserveAspectRatio="xMidYMid meet">

<g transform="translate(0.000000,66.000000) scale(0.100000,-0.100000)"
fill="#000000" stroke="none">
<path d="M397 606 c-9 -13 -19 -37 -22 -52 -13 -58 -14 -59 -46 -28 l-31 29 7
-32 c6 -30 5 -32 -34 -44 -23 -7 -41 -15 -41 -19 0 -4 18 -10 39 -14 34 -5 40
-10 46 -36 8 -35 15 -37 40 -10 18 20 18 20 50 0 43 -27 48 -25 30 10 -19 37
-19 56 0 64 29 11 15 25 -20 19 -33 -5 -35 -4 -35 22 0 16 11 48 25 72 27 45
19 61 -8 19z"/>
<path d="M475 418 c10 -32 10 -30 1 -55 -9 -27 -41 -30 -74 -7 -21 15 -25 15
-41 0 -34 -31 -81 -14 -81 30 0 22 -30 34 -87 36 -57 1 -123 -90 -123 -170 0
-111 79 -186 228 -217 203 -43 400 85 375 241 -8 46 -67 112 -127 140 -65 30
-79 31 -71 2z"/>
</g>
</svg>
